<?xml version="1.0" encoding="UTF-8"?>
<svg id="Ebene_2" data-name="Ebene 2" xmlns="http://www.w3.org/2000/svg" viewBox="0 0 80.98 80.98">
  <g id="Ebene_1-2" data-name="Ebene 1">
    <g>
      <path d="m39.74,17.71c-3.54,0-7.29,1.06-9.54,2.69l-.62.45,2.25,5.91,1.06-.81c1.37-1.04,3.66-1.74,5.7-1.74,3.25.05,4.96,1.57,4.96,4.38,0,2.55-1.52,4.84-4.15,7.93-3.16,3.79-4.54,7.68-4.11,11.54l.2,2.55h6.85l-.1-2.69c-.18-2.99.82-5.53,3.33-8.5,3.18-3.78,5.62-7.03,5.62-11.53,0-5.08-3.54-10.2-11.45-10.2Z"/>
      <path d="m38.8,53.45c-2.76,0-4.76,2.08-4.76,4.94s2.02,4.88,4.69,4.88,4.75-2.05,4.75-4.88-1.97-4.94-4.69-4.94Z"/>
      <path d="m40.49,0C18.16,0,0,18.16,0,40.49s18.16,40.49,40.49,40.49,40.49-18.16,40.49-40.49S62.82,0,40.49,0Zm32.49,40.49c0,17.92-14.57,32.49-32.49,32.49S8,58.4,8,40.49,22.57,8,40.49,8s32.49,14.57,32.49,32.49Z"/>
    </g>
  </g>
</svg>