<?xml version="1.0" encoding="UTF-8"?>
<svg id="Ebene_2" data-name="Ebene 2" xmlns="http://www.w3.org/2000/svg" viewBox="0 0 76.62 72.48">
  <g id="Ebene_1-2" data-name="Ebene 1">
    <g>
      <path d="m38.3,38.78c10.68,0,19.37-8.7,19.38-19.38,0-5.17-2.02-10.03-5.68-13.7-3.67-3.68-8.53-5.7-13.7-5.7s-10.02,2.02-13.68,5.69c-3.67,3.67-5.69,8.54-5.69,13.7,0,10.69,8.69,19.39,19.37,19.39Z"/>
      <path d="m76.61,67.96c-.36-11.93-10.09-21.36-22.16-21.45-3.51-.02-7.02-.02-10.53,0h-10.59c-3.7-.01-7.4-.02-11.09,0-8.02.07-14.34,3.53-18.81,10.3C1.13,60.29-.03,64.24,0,68.55c.01,2.23,1.49,3.84,3.6,3.93h69.38c1.42,0,2.64-.78,3.25-2.14.37-.83.4-1.71.38-2.38Z"/>
    </g>
  </g>
</svg>