<?xml version="1.0" encoding="UTF-8"?>
<svg id="Ebene_2" data-name="Ebene 2" xmlns="http://www.w3.org/2000/svg" viewBox="0 0 81.4 81.42">
  <defs>
    <style>
      .cls-1 {
        fill: #1d1d1b;
      }
    </style>
  </defs>
  <g id="Ebene_1-2" data-name="Ebene 1">
    <path class="cls-1" d="m81.4,37.38c.03-4.54-1.76-8.3-5.31-11.19-2.08-1.69-4.15-3.41-6.22-5.12l-8.02-6.64c-4.8-3.96-9.59-7.93-14.4-11.88-4.04-3.33-9.39-3.4-13.3-.17C24.41,10.41,14.68,18.45,4.96,26.5c-3.29,2.72-4.96,6.28-4.96,10.58v34.71c.01,5.49,4.18,9.63,9.71,9.63h18.79c3.14-.01,4.66-1.53,4.66-4.65v-8.63c0-4.2,0-8.4.01-12.61,0-2.23,1.13-3.37,3.37-3.39,1.58-.01,3.17-.01,4.76,0h3.31c1.25,0,2.17.29,2.75.86.57.57.86,1.5.86,2.76v9.65c0,3.87,0,7.73.01,11.59,0,2.81,1.59,4.42,4.38,4.42h7.64c3.82,0,7.64,0,11.45-.01,5.51-.01,9.67-4.15,9.68-9.64.01-4.03.01-8.06.01-12.09v-10.59c-.02-3.91-.02-7.81,0-11.71Z"/>
  </g>
</svg>